[Header]
FileType HTR
DataType HTRS
FileVersion 1
NumSegments 28
NumFrames 5
DataFrameRate 24
EulerRotationOrder ZYX
CalibrationUnits mm
RotationUnits Degrees
GlobalAxisofGravity Y
BoneLengthAxis Y
ScaleFactor 1.0
[SegmentNames&Hierarchy]
waist	GLOBAL
chest	waist
head	chest
joint2	chest
right_shoulder1	joint2
right_elbow1	right_shoulder1
right_wrist1	right_elbow1
right_hand1	right_wrist1
right_finger3	right_hand1
right_finger4	right_hand1
right_finger5	right_hand1
joint3	chest
right_shoulder2	joint3
right_elbow2	right_shoulder2
right_wrist2	right_elbow2
right_hand2	right_wrist2
right_finger6	right_hand2
right_finger7	right_hand2
right_finger8	right_hand2
Center_pelvis	waist
left_pelvs	Center_pelvis
left_leg	left_pelvs
left_knee	left_leg
left_foot	left_knee
right_pelvis	Center_pelvis
right_leg	right_pelvis
right_knee	right_leg
right_foot	right_knee
[BasePosition]
waist	0	0	0	179.9999991	0	91.33221985	1
chest	0	0	0	-2.307808268e-010	-1.984983424e-008	1.332219854	1
head	0	0	0	180	-1.481061187e-024	90	1
joint2	0	0	0	4.615476202e-010	-1.707085745e-006	90	1
right_shoulder1	0	0	0	1.916575325e-008	-1.983803253e-008	-88.02506599	1
right_elbow1	0	0	0	-180	-1.948815659e-008	-12.92899665	1
right_wrist1	0	0	0	3.256551172e-010	1.942478841e-008	1.920938916	1
right_hand1	0	0	0	136.2194085	85.17676588	-133.4832578	1
right_finger3	0	0	0	154.4596717	79.84057755	147.6247455	1
right_finger4	0	0	0	154.4596717	79.84057755	147.6247455	1
right_finger5	0	0	0	154.4596717	79.84057755	147.6247455	1
joint3	0	0	0	-180	-1.89575832e-022	90	1
right_shoulder2	0	0	0	6.774897105e-015	-7.012540931e-015	-88.02506599	1
right_elbow2	0	0	0	-180	-6.888863384e-015	-12.92899665	1
right_wrist2	0	0	0	-1.240805042e-012	-7.401196581e-011	1.920938916	1
right_hand2	0	0	0	136.2194085	85.17676588	-133.4832578	1
right_finger6	0	0	0	154.4596717	79.84057755	147.6247455	1
right_finger7	0	0	0	154.4596717	79.84057755	147.6247455	1
right_finger8	0	0	0	154.4596717	79.84057755	147.6247455	1
Center_pelvis	0	0	0	-180	-8.537716493e-007	89.87586122	1
left_pelvs	0	0	0	0	0	-1.456358634	1
left_leg	0	0	0	179.9999991	0	88.69804733	1
left_knee	0	0	0	-180	-7.863991589e-009	-2.076172838	1
left_foot	0	0	0	179.9999985	-3.055580289e-010	-90.77422016	1
right_pelvis	0	0	0	0	0	-2.39554958	1
right_leg	0	0	0	0	0	-87.75885638	1
right_knee	0	0	0	179.9999991	3.702652968e-022	-2.076172838	1
right_foot	0	0	0	180	-7.405305937e-025	-90.77422016	1
[waist]
1	0	-3.152148962	0	1.823863387	-13.80161572	1.340750337	1.0
2	0	-3.152148962	0	1.891402245	-18.69773483	1.162667513	1.0
3	0	-3.152148962	0	2.006448984	-27.03786469	0.859318316	1.0
4	0	-3.152148962	0	2.051285982	-30.28825569	0.7410943508	1.0
5	0	-3.152148962	0	2.024572849	-25.72686386	0.8934152722	1.0
[chest]
1	26.00589561	-0.2472970486	-4.335428715	-6.5	13.23849297	0	1.0
2	26.00589561	-0.2472970486	-4.335428715	-23.36893272	13.23849297	0	1.0
3	26.00589561	-0.2472970486	-4.335428715	-38.59521103	13.23849297	0	1.0
4	26.00589561	-0.2472970486	-4.335428715	-50	13.23849297	0	1.0
5	26.00589561	-0.2472970486	-4.335428715	-44.81380081	13.22239494	0.9084284902	1.0
[head]
1	20.62318993	0.1433748305	1.492195129	0	0	0	1.0
2	20.62318993	0.1433748305	1.492195129	0	6.738597393	0	1.0
3	20.62318993	0.1433748305	1.492195129	0	16.57952881	0	1.0
4	20.62318993	0.1433748305	1.492195129	0	19.41562271	0	1.0
5	20.62318993	0.1433748305	1.492195129	0	16.88796425	0	1.0
[joint2]
1	-1.657010078	17.01290512	0.01287616603	-55.70413589	0	0	1.0
2	-2.053148031	16.9709301	-1.832383871	-52.80882645	11.69995785	9.3945961	1.0
3	-2.631660938	16.90962982	-4.527170181	-48.58056259	28.78637505	23.11430359	1.0
4	-2.798384666	16.89196205	-5.303790092	-47.36200333	33.71057129	27.06823349	1.0
5	-2.649792671	16.90770721	-4.611629486	-47.87016678	32.67733002	26.04757309	1.0
[right_shoulder1]
1	14.91590023	0.6211000085	0.9477797747	0	-26.75839615	0	1.0
2	14.91590023	0.6211000085	0.9477797747	5.052899837	-25.3500061	-11.77946281	1.0
3	14.91590023	0.6211000085	0.9477797747	12.43206787	-23.2932148	-28.981987	1.0
4	14.91590023	0.6211000085	0.9477797747	14.55869675	-22.70046043	-33.93964386	1.0
5	14.91590023	0.6211000085	0.9477797747	14.97997856	-22.39032936	-35.0864296	1.0
[right_elbow1]
1	-13.64346027	1.083028078	-0.5017899871	0	6.696597576	0	1.0
2	-13.64346027	1.083028078	-0.5017899871	-1.584257841	6.074796677	-14.93685818	1.0
3	-13.64346027	1.083028078	-0.5017899871	-3.897880793	5.16672945	-36.75039291	1.0
4	-13.64346027	1.083028078	-0.5017899871	-4.564651966	4.905030251	-43.03691101	1.0
5	-13.64346027	1.083028078	-0.5017899871	-4.3565135	5.048450947	-40.86326981	1.0
[right_wrist1]
1	-11.07325459	0.004849368241	0.6145500541	0	0	0	1.0
2	-11.07325459	0.004849368241	0.6145500541	0	0	-8.468834877	1.0
3	-11.07325459	0.004849368241	0.6145500541	0	0	-20.83657455	1.0
4	-11.07325459	0.004849368241	0.6145500541	0	0	-24.400877	1.0
5	-11.07325459	0.004849368241	0.6145500541	0	0	-24.79180527	1.0
[right_hand1]
1	-7.870647907	-0.6475095749	0.1588415354	1.413780451	-8.62234211	10.82726288	1.0
2	-7.870647907	-0.6475095749	0.1588415354	1.413780451	-8.62234211	10.82726288	1.0
3	-7.870647907	-0.6475095749	0.1588415354	1.413780451	-8.62234211	10.82726288	1.0
4	-7.870647907	-0.6475095749	0.1588415354	1.413780451	-8.62234211	10.82726288	1.0
5	-7.870647907	-0.6475095749	0.1588415354	1.413780451	-8.62234211	10.82726288	1.0
[right_finger3]
1	10.07661057	3.347557783	-1.489186764	-84.34741974	-10.40782356	85.4362793	1.0
2	10.07661057	3.347557783	-1.489186764	-84.28974915	-0.8446054459	86.38906097	1.0
3	10.07661057	3.347557783	-1.489186764	-84.20553589	13.1213541	87.78049469	1.0
4	10.07661057	3.347557783	-1.489186764	-84.18126678	17.14625359	88.18149567	1.0
5	10.07661057	3.347557783	-1.489186764	-84.18126678	17.14625359	88.18149567	1.0
[right_finger4]
1	-1.201135993	3.376283169	11.27149582	-182.6172638	18.97066116	149.3108826	1.0
2	-1.201135993	3.376283169	11.27149582	-185.0774841	18.14128494	141.3517456	1.0
3	-1.201135993	3.376283169	11.27149582	-188.6703796	16.93008423	129.7283325	1.0
4	-1.201135993	3.376283169	11.27149582	-189.7058258	16.58102226	126.37854	1.0
5	-1.201135993	3.376283169	11.27149582	-189.7058258	16.58102226	126.37854	1.0
[right_finger5]
1	-6.853637218	4.493112087	-5.936321735	31.42646408	15.29404449	61.99725723	1.0
2	-6.853637218	4.493112087	-5.936321735	32.52900696	10.10595226	69.92702484	1.0
3	-6.853637218	4.493112087	-5.936321735	34.13914108	2.529350519	81.50753784	1.0
4	-6.853637218	4.493112087	-5.936321735	34.6031723	0.3458225429	84.84496307	1.0
5	-6.853637218	4.493112087	-5.936321735	34.6031723	0.3458225429	84.84496307	1.0
[joint3]
1	-1.657010078	-17.01289368	0.01287565939	-26.05910301	-14.11326599	3.727336645	1.0
2	-1.300074935	-16.9310112	1.718948483	-30.38638878	-18.58653069	3.751494408	1.0
3	-0.7788128257	-16.81143188	4.210467815	-36.70588684	-25.11920738	3.786773443	1.0
4	-0.6285884976	-16.77696991	4.928507805	-38.5271225	-27.00188446	3.796940804	1.0
5	-0.7624754906	-16.80768394	4.288557053	-38.4316864	-25.32395554	3.787879229	1.0
[right_shoulder2]
1	-14.91590023	-0.6211000085	-0.9477797747	14.05768299	1251.959961	20.96865273	1.0
2	-14.91590023	-0.6211000085	-0.9477797747	10.61536694	1240.91626	22.5086937	1.0
3	-14.91590023	-0.6211000085	-0.9477797747	5.58826828	1224.788208	24.75774384	1.0
4	-14.91590023	-0.6211000085	-0.9477797747	4.139490604	1220.140259	25.40590477	1.0
5	-14.91590023	-0.6211000085	-0.9477797747	4.037815094	1222.863281	25.2022438	1.0
[right_elbow2]
1	13.02228546	-0.6429510713	-2.932514906	5.884216309	12.33655453	-15.33373165	1.0
2	12.76637459	-0.7101869583	-3.088856697	5.926712036	2.206737757	-16.37786674	1.0
3	12.39264488	-0.8083770275	-3.317175865	5.988771915	-12.58667278	-17.90270233	1.0
4	12.28493881	-0.8366748095	-3.382975817	6.006657124	-16.85003853	-18.34215164	1.0
5	12.28493881	-0.8366748095	-3.382975817	5.972985744	-14.70774555	-18.11988449	1.0
[right_wrist2]
1	11.85136986	-0.2495054156	0.2257456481	0	-17.5559063	0	1.0
2	11.85136986	-0.2495054156	0.2257456481	0	-13.537673	0	1.0
3	11.85136986	-0.2495054156	0.2257456481	0	-7.669514656	0	1.0
4	11.85136986	-0.2495054156	0.2257456481	0	-5.978348732	0	1.0
5	11.85136986	-0.2495054156	0.2257456481	0	-3.917198181	0	1.0
[right_hand2]
1	8.313048363	0.02588133886	-0.2132965624	6.573187351	32.90316391	-25.16577148	1.0
2	8.313048363	0.02588133886	-0.2132965624	12.36022282	28.8403511	-22.39869499	1.0
3	8.313048363	0.02588133886	-0.2132965624	20.81151009	22.90708733	-18.35770607	1.0
4	8.313048363	0.02588133886	-0.2132965624	23.24711609	21.19716072	-17.19311905	1.0
5	8.313048363	0.02588133886	-0.2132965624	23.24711609	21.19716072	-17.19311905	1.0
[right_finger6]
1	-10.07661057	-3.347557783	1.489186764	-82.56325531	41.54194641	91.40802002	1.0
2	-10.07661057	-3.347557783	1.489186764	-81.58605194	7.332770348	86.6964798	1.0
3	-10.07661057	-3.347557783	1.489186764	-80.15895081	-42.62572479	79.81583405	1.0
4	-10.07661057	-3.347557783	1.489186764	-79.74767303	-57.02344131	77.83287811	1.0
5	-10.07661057	-3.347557783	1.489186764	-79.74767303	-57.02344131	77.83287811	1.0
[right_finger7]
1	1.201135993	-3.376283169	-11.27149582	-178.3618011	19.07616615	162.3161011	1.0
2	1.201135993	-3.376283169	-11.27149582	-176.6793518	18.72019005	167.5730896	1.0
3	1.201135993	-3.376283169	-11.27149582	-174.2223206	18.20032692	175.2502747	1.0
4	1.201135993	-3.376283169	-11.27149582	-173.5142365	18.05050659	177.4627991	1.0
5	1.201135993	-3.376283169	-11.27149582	-173.5142365	18.05050659	177.4627991	1.0
[right_finger8]
1	6.853637218	-4.493112087	5.936321735	28.57172203	20.40917206	52.71258163	1.0
2	6.853637218	-4.493112087	5.936321735	25.28851891	23.53404236	45.0215416	1.0
3	6.853637218	-4.493112087	5.936321735	20.49378014	28.09754944	33.78968048	1.0
4	6.853637218	-4.493112087	5.936321735	19.11196899	29.41272354	30.55272865	1.0
5	6.853637218	-4.493112087	5.936321735	19.11196899	29.41272354	30.55272865	1.0
[Center_pelvis]
1	-5.616972446	-0.3766000271	2.04698658	0	0	0	1.0
2	-5.616972446	-0.3766000271	2.04698658	5.993406296	0	0	1.0
3	-5.616972446	-0.3766000271	2.04698658	17.1240139	0	0	1.0
4	-5.616972446	-0.3766000271	2.04698658	23.11741829	0	0	1.0
5	-5.616972446	-0.3766000271	2.04698658	6.583553791	0	0	1.0
[left_pelvs]
1	11.08986378	-0.01586683653	-0.09214995801	-9.994826317	0	0	1.0
2	11.08986378	-0.01586683653	-0.09214995801	-9.162052155	-0.04083815217	-1.501359463	1.0
3	11.08986378	-0.01586683653	-0.09214995801	-7.229975224	-0.1355847716	-4.98459053	1.0
4	11.08986378	-0.01586683653	-0.09214995801	-4.84897995	-0.2523457706	-9.277150154	1.0
5	11.08986378	-0.01586683653	-0.09214995801	-2.633954763	-0.3609677255	-13.27048969	1.0
[left_leg]
1	8.450808053e-008	-5.682914734	0.3641465604	0	-51.82529449	0	1.0
2	8.450808053e-008	-5.682914734	0.3641465604	0	-45.32296371	-1.674016476	1.0
3	8.450808053e-008	-5.682914734	0.3641465604	0	-30.23722076	-5.55782032	1.0
4	8.450808053e-008	-5.682914734	0.3641465604	0	-11.64630604	-10.34402752	1.0
5	8.450808053e-008	-5.682914734	0.3641465604	0	5.648696423	-14.79660225	1.0
[left_knee]
1	-10.69747543	0.03457061574	-6.811455844e-009	37.05981445	-40.4884758	-5.76624918	1.0
2	-10.69747543	0.03457061574	-6.811455844e-009	33.41772079	-36.50942612	-5.199564457	1.0
3	-10.69747543	0.03457061574	-6.811455844e-009	24.96787643	-27.27782631	-3.884827375	1.0
4	-10.69747543	0.03457061574	-6.811455844e-009	14.55470657	-15.90126324	-2.264611006	1.0
5	-10.69747543	0.03457061574	-6.811455844e-009	4.867406845	-5.317724228	-0.75733459	1.0
[left_foot]
1	-14.54718971	-0.01193539705	1.933258442e-009	-10.61420059	31.93104172	-11.63099003	1.0
2	-14.54718971	-0.01193539705	1.933258442e-009	-9.5710783	28.79298401	-10.48794174	1.0
3	-14.54718971	-0.01193539705	1.933258442e-009	-7.150981426	21.51252747	-7.836010456	1.0
4	-14.54718971	-0.01193539705	1.933258442e-009	-4.168574333	12.54045582	-4.567903519	1.0
5	-14.54718971	-0.01193539705	1.933258442e-009	-1.394060612	4.193797588	-1.527604938	1.0
[right_pelvis]
1	-10.5868988	0.4465443194	0.2088862956	8.282813072	0	0	1.0
2	-10.5868988	0.4465443194	0.2088862956	8.624979973	-0.0036543936	-1.568097115	1.0
3	-10.5868988	0.4465443194	0.2088862956	9.418824196	-0.01213277411	-5.20616293	1.0
4	-10.5868988	0.4465443194	0.2088862956	10.39711952	-0.02258110791	-9.689533234	1.0
5	-10.5868988	0.4465443194	0.2088862956	11.30722046	-0.03230112046	-13.86038208	1.0
[right_leg]
1	0.09169664979	-5.593489647	0.06310817599	0	49.47127533	0	1.0
2	0.09169664979	-5.593489647	0.06310817599	0	46.1955452	0	1.0
3	0.09169664979	-5.593489647	0.06310817599	0	38.59568024	0	1.0
4	0.09169664979	-5.593489647	0.06310817599	0	29.22998428	0	1.0
5	0.09169664979	-5.593489647	0.06310817599	0	20.51714325	0	1.0
[right_knee]
1	10.69750977	-0.03459574655	-4.718447855e-015	0	-4.271131039	0	1.0
2	10.69750977	-0.03459574655	-4.718447855e-015	2.286533594	-8.377760887	-1.335837603	1.0
3	10.69750977	-0.03459574655	-4.718447855e-015	7.59140873	-17.90535164	-4.435050011	1.0
4	10.69750977	-0.03459574655	-4.718447855e-015	14.12887192	-29.64667892	-8.254364014	1.0
5	10.69750977	-0.03459574655	-4.718447855e-015	20.21063232	-40.569561	-11.80744648	1.0
[right_foot]
1	14.54718685	0.01191107463	1.774880243e-010	11.55060196	0	0	1.0
2	14.54718685	0.01191107463	1.774880243e-010	7.893558979	1.445271015	-0.5264459252	1.0
3	14.54718685	0.01191107463	1.774880243e-010	-0.5909680724	4.798373699	-1.747827649	1.0
4	14.54718685	0.01191107463	1.774880243e-010	-11.04687691	8.930569649	-3.252997398	1.0
5	14.54718685	0.01191107463	1.774880243e-010	-20.77393723	12.77472496	-4.65324688	1.0
[EndOfFile]
